#!OML:ASF F:\VICON\USERDATA\INSTALL\rory3\rory3.ASF
:FULLY-SPECIFIED
:DEGREES
599
root -3.23916 18.1387 -10.4451 17.0222 31.5399 5.02489
lowerback -5.78943 -1.15435 -4.74361
upperback -2.1667 -1.19451 -3.2299
thorax 1.03926 -0.576412 -0.744639
lowerneck -18.0309 1.53464 2.99507
upperneck 20.7007 1.80529 -2.01668
head 9.57181 0.860625 -0.953011
rclavicle 6.55989e-015 -4.29375e-014
rhumerus -38.3027 15.2031 -96.6447
rradius 31.1817
rwrist -1.15285
rhand -16.8355 12.6099
rfingers 7.12502
rthumb 9.39406 -17.1608
lclavicle 6.55989e-015 -4.29375e-014
lhumerus -36.1781 -7.35957 82.1666
lradius 26.0798
lwrist 6.64807
lhand -9.52147 27.6264
lfingers 7.12502
lthumb 16.4444 56.9494
rfemur -7.98839 -4.50765 12.7664
rtibia 43.2583
rfoot 2.74919 13.1558
rtoes -3.55854
lfemur -34.1417 14.1313 -31.05
ltibia 32.7874
lfoot -12.1165 -13.2602
ltoes -8.78904
600
root -3.13365 18.1577 -10.3511 16.9612 31.1112 5.31217
lowerback -5.92382 -1.16602 -4.93246
upperback -2.11686 -1.18411 -3.32823
thorax 1.16672 -0.572999 -0.743684
lowerneck -18.0019 1.6235 3.13194
upperneck 20.5651 1.90426 -2.08875
head 9.52392 0.908521 -0.987237
rclavicle 1.41137e-014 -4.85035e-014
rhumerus -38.3502 15.0012 -96.5604
rradius 31.2002
rwrist -1.13555
rhand -17.9969 10.3779
rfingers 7.12502
rthumb 8.27333 -19.4401
lclavicle 1.41137e-014 -4.85035e-014
lhumerus -36.1224 -7.51081 82.3231
lradius 26.2472
lwrist 6.84337
lhand -8.98504 27.6306
lfingers 7.12502
lthumb 16.9608 56.91
rfemur -9.06444 -4.77741 12.0362
rtibia 45.5699
rfoot 4.1031 13.2971
rtoes -3.13867
lfemur -33.041 14.1809 -31.2887
ltibia 32.2033
lfoot -12.4123 -13.1361
ltoes -8.51621
601
root -3.03599 18.1749 -10.2632 16.9605 30.7536 5.77385
lowerback -5.90446 -1.26712 -5.38766
upperback -2.08994 -1.29124 -3.35501
thorax 1.19471 -0.625836 -0.525708
lowerneck -17.918 1.72498 3.06895
upperneck 20.4152 2.0654 -2.10155
head 9.46009 0.976755 -0.959654
rclavicle 6.97734e-014 3.33958e-014
rhumerus -38.4497 15.015 -96.449
rradius 31.2701
rwrist -1.33031
rhand -18.6687 10.8038
rfingers 7.12502
rthumb 7.62495 -19.0388
lclavicle 6.97734e-014 3.33958e-014
lhumerus -36.1668 -7.69665 82.6695
lradius 26.5273
lwrist 7.17752
lhand -8.83575 27.4504
lfingers 7.12502
lthumb 17.1045 56.7175
rfemur -10.1318 -5.05362 11.2205
rtibia 47.8198
rfoot 5.06056 13.3311
rtoes -2.90661
lfemur -31.914 14.0797 -31.6653
ltibia 31.6068
lfoot -12.7935 -12.8371
ltoes -9.07582
602
root -2.94545 18.191 -10.1778 16.9043 30.5004 6.03304
lowerback -5.87433 -1.33502 -5.62469
upperback -2.0732 -1.36869 -3.38114
thorax 1.20194 -0.664148 -0.426092
lowerneck -17.815 1.80231 3.05759
upperneck 20.2272 2.17266 -2.093
head 9.37835 1.02668 -0.940697
rclavicle 5.85421e-014 2.54444e-014
rhumerus -38.5947 14.994 -96.3863
rradius 31.4573
rwrist -1.69738
rhand -19.2913 9.64856
rfingers 7.12502
rthumb 7.02401 -20.2149
lclavicle 5.85421e-014 2.54444e-014
lhumerus -36.2318 -8.28295 83.1136
lradius 26.9483
lwrist 7.56995
lhand -8.87488 27.1955
lfingers 7.12502
lthumb 17.0669 56.4658
rfemur -11.2823 -5.29226 10.696
rtibia 49.9772
rfoot 5.40113 13.2252
rtoes -3.31539
lfemur -30.8973 13.9778 -31.8591
ltibia 31.0376
lfoot -13.0567 -12.5843
ltoes -9.12626
603
root -2.8535 18.2054 -10.0943 16.8331 30.1947 6.21353
lowerback -5.89188 -1.3373 -5.7244
upperback -2.06004 -1.3621 -3.44813
thorax 1.22558 -0.661184 -0.440029
lowerneck -17.7135 1.85423 3.20274
upperneck 20.0351 2.21787 -2.15883
head 9.29676 1.05151 -0.981738
rclavicle -1.77912e-014 2.46493e-014
rhumerus -38.7352 14.852 -96.3521
rradius 31.7034
rwrist -2.16361
rhand -19.3737 9.38648
rfingers 7.12502
rthumb 6.94445 -20.4796
lclavicle -1.77912e-014 2.46493e-014
lhumerus -36.263 -8.95663 83.507
lradius 27.4546
lwrist 7.84501
lhand -8.7166 27.0748
lfingers 7.12502
lthumb 17.2192 56.3319
rfemur -12.4919 -5.42389 10.2546
rtibia 52.0311
rfoot 5.12062 13.2815
rtoes -4.21854
lfemur -29.9583 13.8069 -31.9768
ltibia 30.5
lfoot -13.2515 -12.2982
ltoes -8.4784
604
root -2.76736 18.2169 -10.013 16.6246 29.9718 6.29154
lowerback -5.78761 -1.37968 -5.77952
upperback -2.01837 -1.42215 -3.45982
thorax 1.21352 -0.691577 -0.423897
lowerneck -17.5962 1.9507 3.28653
upperneck 19.8095 2.327 -2.16019
head 9.20142 1.10861 -0.982057
rclavicle 7.15625e-015 4.77083e-015
rhumerus -38.9715 15.0557 -96.5218
rradius 32.0976
rwrist -3.16202
rhand -19.6065 9.58077
rfingers 7.12502
rthumb 6.71972 -20.2926
lclavicle 7.15625e-015 4.77083e-015
lhumerus -36.248 -9.48479 83.814
lradius 27.9992
lwrist 7.90556
lhand -8.37163 26.9806
lfingers 7.12502
lthumb 17.5512 56.2084
rfemur -13.5859 -5.53761 9.98404
rtibia 53.9366
rfoot 4.51471 13.5024
rtoes -4.57342
lfemur -28.9865 13.6565 -31.9731
ltibia 30.0264
lfoot -13.5114 -11.995
ltoes -8.3795
605
root -2.68431 18.2265 -9.9317 16.362 29.8711 6.33612
lowerback -5.61854 -1.4664 -5.87964
upperback -1.95626 -1.54561 -3.37686
thorax 1.19249 -0.753827 -0.288097
lowerneck -17.5107 2.03224 3.28081
upperneck 19.5777 2.44752 -2.1985
head 9.10966 1.1599 -0.978801
rclavicle -4.17448e-015 1.43125e-014
rhumerus -39.1397 15.1291 -96.4903
rradius 32.3931
rwrist -3.8647
rhand -19.9741 9.70213
rfingers 7.12502
rthumb 6.36484 -20.1822
lclavicle -4.17448e-015 1.43125e-014
lhumerus -36.2354 -10.0875 84.297
lradius 28.617
lwrist 8.14003
lhand -8.34439 26.9745
lfingers 7.12502
lthumb 17.5774 56.2
rfemur -14.6238 -5.69496 9.80963
rtibia 55.6938
rfoot 3.82375 13.6676
rtoes -4.48489
lfemur -27.9698 13.5257 -31.9355
ltibia 29.5892
lfoot -14.1609 -11.5634
ltoes -10.9004
606
root -2.60302 18.2365 -9.85015 16.1288 29.817 6.38972
lowerback -5.43694 -1.53512 -6.01775
upperback -1.91668 -1.64602 -3.27562
thorax 1.14248 -0.803533 -0.109782
lowerneck -17.3827 2.08886 3.20394
upperneck 19.3681 2.53586 -2.15276
head 9.01507 1.20085 -0.939688
rclavicle 8.92543e-014 1.59028e-015
rhumerus -39.2313 14.8133 -96.1859
rradius 32.4995
rwrist -3.95488
rhand -20.2068 9.75895
rfingers 7.12502
rthumb 6.14018 -20.1321
lclavicle 8.92543e-014 1.59028e-015
lhumerus -36.2138 -10.8143 84.8511
lradius 29.2124
lwrist 8.53335
lhand -8.33652 26.7756
lfingers 7.12502
lthumb 17.585 56.0003
rfemur -15.6887 -5.91178 9.67564
rtibia 57.3088
rfoot 3.07357 13.768
rtoes -4.82706
lfemur -26.9837 13.3366 -31.9041
ltibia 29.1662
lfoot -15.0033 -10.9681
ltoes -14.8087
607
root -2.52282 18.2424 -9.76883 15.9383 29.793 6.3437
lowerback -5.39299 -1.58115 -5.97045
upperback -1.88096 -1.71347 -3.21198
thorax 1.15841 -0.838454 -0.0743326
lowerneck -17.2521 2.11457 3.17218
upperneck 19.1789 2.57485 -2.13051
head 8.92672 1.21971 -0.922703
rclavicle 2.37548e-014 -6.36111e-015
rhumerus -39.2492 14.2942 -95.8531
rradius 32.5378
rwrist -4.0267
rhand -20.2733 9.75244
rfingers 7.12502
rthumb 6.07593 -20.1404
lclavicle 2.37548e-014 -6.36111e-015
lhumerus -36.163 -11.5364 85.282
lradius 29.9162
lwrist 8.86369
lhand -8.40934 26.587
lfingers 7.12502
lthumb 17.5149 55.818
rfemur -16.873 -6.11846 9.68329
rtibia 58.797
rfoot 2.45571 13.6826
rtoes -4.78776
lfemur -26.1345 13.0006 -31.7559
ltibia 28.7721
lfoot -15.6905 -10.4123
ltoes -17.4496
608
root -2.44328 18.2434 -9.68861 15.6976 29.7776 6.17785
lowerback -5.40045 -1.6093 -5.78118
upperback -1.80366 -1.75832 -3.14205
thorax 1.24132 -0.864459 -0.111789
lowerneck -17.1862 2.12943 3.19759
upperneck 18.9271 2.58685 -2.14186
head 8.82933 1.22572 -0.929674
rclavicle -1.35174e-014 -1.66979e-014
rhumerus -39.0735 13.499 -95.3543
rradius 32.3471
rwrist -3.56752
rhand -20.4507 9.64505
rfingers 7.12502
rthumb 5.90471 -20.2527
lclavicle -1.35174e-014 -1.66979e-014
lhumerus -36.038 -12.1241 85.5986
lradius 30.6927
lwrist 9.03141
lhand -8.53664 26.6778
lfingers 7.12502
lthumb 17.3924 55.9196
rfemur -18.0832 -6.311 9.83043
rtibia 60.1514
rfoot 1.96965 13.334
rtoes -3.5258
lfemur -25.3741 12.759 -31.5092
ltibia 28.4263
lfoot -15.778 -10.2806
ltoes -15.841
609
root -2.36499 18.2431 -9.60983 15.4481 29.7553 6.06871
lowerback -5.3331 -1.61953 -5.66603
upperback -1.72425 -1.78169 -3.07291
thorax 1.28567 -0.878747 -0.105473
lowerneck -17.1866 2.12783 3.20923
upperneck 18.7583 2.5725 -2.12142
head 8.77117 1.22148 -0.926447
rclavicle 7.95139e-014 1.98785e-014
rhumerus -38.9383 12.7506 -94.8169
rradius 32.1965
rwrist -2.85221
rhand -20.7288 8.95752
rfingers 7.12502
rthumb 5.63624 -20.9475
lclavicle 7.95139e-014 1.98785e-014
lhumerus -35.9441 -12.9345 86.0466
lradius 31.4791
lwrist 9.33548
lhand -8.73726 26.6692
lfingers 7.12502
lthumb 17.1993 55.928
rfemur -19.2402 -6.52965 9.93503
rtibia 61.3539
rfoot 1.24067 13.0576
rtoes -2.5243
lfemur -24.6007 12.5787 -31.3226
ltibia 28.1326
lfoot -15.2424 -10.394
ltoes -10.182
610
root -2.2879 18.243 -9.52873 15.2165 29.7149 5.97736
lowerback -5.29139 -1.67661 -5.63513
upperback -1.6765 -1.86311 -2.96526
thorax 1.31761 -0.921142 -0.0168939
lowerneck -17.0658 2.19005 3.20749
upperneck 18.6097 2.65859 -2.11735
head 8.7012 1.26278 -0.914848
rclavicle 1.52567e-014 5.56597e-015
rhumerus -38.9331 12.2836 -94.4464
rradius 32.1172
rwrist -2.43598
rhand -20.7759 8.64111
rfingers 7.12502
rthumb 5.59067 -21.2651
lclavicle 1.52567e-014 5.56597e-015
lhumerus -35.8869 -13.5354 86.4236
lradius 32.2512
lwrist 9.7935
lhand -8.67189 26.5341
lfingers 7.12502
lthumb 17.2623 55.7874
rfemur -20.381 -6.66306 10.0599
rtibia 62.4016
rfoot 0.153445 12.7428
rtoes -2.99414
lfemur -23.8564 12.4738 -31.1742
ltibia 27.9206
lfoot -14.9931 -10.3773
ltoes -6.2966
611
root -2.2122 18.2455 -9.44528 15.0605 29.6694 5.96816
lowerback -5.27852 -1.74351 -5.69611
upperback -1.66512 -1.95177 -2.86579
thorax 1.33121 -0.966048 0.11351
lowerneck -16.8224 2.2484 3.19472
upperneck 18.4444 2.74156 -2.09142
head 8.60309 1.30528 -0.89561
rclavicle 1.05356e-014 4.45278e-014
rhumerus -38.9755 11.8268 -94.1324
rradius 32.0164
rwrist -2.2392
rhand -20.6764 8.89208
rfingers 7.12502
rthumb 5.68682 -21.0116
lclavicle 1.05356e-014 4.45278e-014
lhumerus -35.8852 -14.1765 86.7926
lradius 33.1185
lwrist 10.5013
lhand -8.88162 26.7667
lfingers 7.12502
lthumb 17.0604 56.0376
rfemur -21.5267 -6.81826 10.1298
rtibia 63.287
rfoot -1.16776 12.3848
rtoes -5.64926
lfemur -23.1715 12.5302 -31.1518
ltibia 27.808
lfoot -15.4048 -10.1228
ltoes -7.38852
